<?xml version="1.0" encoding="UTF-8"?><svg id="Layer_2" data-name="Layer 2" xmlns="http://www.w3.org/2000/svg" viewBox="0 0 206.46 231.83"><defs><style>.cls-1 {fill: #e12228;}.cls-1, .cls-2 {stroke-width: 0px;}.cls-2 {fill: #2d2c2a;}</style></defs><g id="bb"><g><g id="B_Right"><path class="cls-2" d="M177.62,165.51l20.62,11.83c1.68.97,1.65,1.42-.05,2.42-29.18,17.02-58.33,34.09-87.43,51.19-1.98,1.17-2.14,1.08-2.17-1.24.02-15.97.05-31.93.07-47.88-.09-1.03.47-2.02,1.41-2.46,14.61-8.57,29.19-17.16,43.74-25.79.99-.68,2.29-.67,3.26.03,6.81,4.06,13.68,7.98,20.55,11.91Z"/><path class="cls-1" d="M183.17,155.35l-20.19-11.58c-1.29-.59-2.08-1.93-1.96-3.35.06-14.22.05-28.49.09-42.74,0-2.38.27-2.55,2.31-1.38l40.75,23.39c1.21.57,1.93,1.85,1.81,3.19,0,14.39.03,28.8.09,43.21.01,1.97-.58,2.13-2.2,1.18-6.85-3.99-13.78-7.94-20.7-11.91Z"/><path class="cls-2" d="M142.04,147.39l-31.61,18.59c-.64.38-1.45-.08-1.46-.83-.02-2.56-.05-4.93-.06-7.31l.31-154.87c0-.52.04-1.05-.01-1.54-.2-1.65.5-1.72,1.76-.99,4.04,2.32,8.05,4.7,12.12,6.96,1.26.72,1.18,1.69,1.17,2.82-.03,17.6-.06,35.21-.08,52.82-.04,22.91-.11,45.84-.19,68.8-.16,1.49.65,2.9,2,3.52,5.38,2.96,10.65,6.11,16.04,9.2h0c1.1.61,1.11,2.19.02,2.83Z"/><path class="cls-2" d="M137.87,15.9l66.45,38.13c1.42.63,2.27,2.11,2.13,3.67-.08,15.61-.05,31.22-.06,46.83-.02,2.69-.07,2.78-2.54,1.37l-49.83-28.6-1.73-.99c-1.51-.98-1.98-.55-1.98,1.23,0,18.43-.05,36.87-.13,55.32-.02,3.06-.04,3.05-2.63,1.56l-10.59-6.07c-1.16-.5-1.88-1.69-1.79-2.96.08-36.28.12-72.56.13-108.85.01-2.32-.33-2.24,2.57-.63Z"/></g><g id="B_Left"><path class="cls-2" d="M35.31,196.86L1.82,177.65c-1.21-.55-1.94-1.81-1.81-3.14.1-15.89.14-31.79.13-47.7,0-2.29.04-2.33,2.16-1.11l51.17,29.37c2.63,1.51,2.73,1.46,2.72-1.51l.1-55.06c-.03-2.6-.02-2.62,2.15-1.38l10.97,6.3c1.23.54,1.97,1.8,1.87,3.14-.1,36.08-.18,72.17-.25,108.27,0,2.46-.03,2.47-2.22,1.21l-33.52-19.19Z"/><path class="cls-2" d="M28.77,66.27l-20.2-11.59c-2.29-1.31-2.3-1.51.04-2.88L81.14,9.32c4.94-2.9,9.88-5.76,14.79-8.71,1.57-.94,2.1-.84,2.07,1.19-.08,15.9-.11,31.81-.09,47.72.16,1.25-.49,2.48-1.61,3.05-14.33,8.31-28.63,16.67-42.89,25.08-1.46,1.04-3.4,1.04-4.84-.01-6.56-3.86-13.21-7.58-19.81-11.37Z"/><path class="cls-2" d="M64.5,84.44l31.61-18.59c.64-.38,1.45.08,1.46.83.02,2.56.05,4.93.06,7.31l-.31,154.87c0,.52-.04,1.05.01,1.54.2,1.65-.5,1.72-1.76.99-4.04-2.32-8.05-4.7-12.12-6.96-1.26-.72-1.18-1.69-1.17-2.82.03-17.6.06-35.21.08-52.82.04-22.91.11-45.84.19-68.8.16-1.49-.65-2.9-2-3.52-5.38-2.96-10.65-6.11-16.04-9.2h0c-1.1-.61-1.11-2.19-.02-2.83Z"/><path class="cls-1" d="M23,76.73l20.19,11.58c1.29.59,2.08,1.93,1.96,3.35-.06,14.22-.05,28.49-.09,42.74,0,2.38-.27,2.55-2.31,1.38L1.99,112.4c-1.21-.57-1.93-1.85-1.81-3.19,0-14.39-.03-28.8-.09-43.21-.01-1.97.58-2.13,2.2-1.18,6.85,3.99,13.78,7.94,20.7,11.91Z"/></g></g></g></svg>