<?xml version="1.0" encoding="UTF-8"?>
<svg id="Layer_2" data-name="Layer 2" xmlns="http://www.w3.org/2000/svg" viewBox="0 0 256.94 42.48">
  <defs>
    <style>
      .cls-1 {
        fill: #ed1c24;
      }

      .cls-1, .cls-2 {
        stroke-width: 0px;
      }

      .cls-2 {
        fill: #2d2c2a;
      }
    </style>
  </defs>
  <g id="Layer_4" data-name="Layer 4">
    <g>
      <path class="cls-1" d="M0,41.88v-5.28h14.76c1.48,0,2.6-.02,3.36-.06,1.56-.16,2.74-.36,3.54-.6,2.72-1.04,4.08-2.96,4.08-5.76s-1.38-4.68-4.14-5.88c-1.72-.64-4.04-.96-6.96-.96H0v-5.76h13.86c1.16,0,2.17-.06,3.03-.18.86-.12,1.79-.38,2.79-.78,1-.4,1.78-1.05,2.34-1.95.56-.9.84-2.05.84-3.45,0-1.04-.17-1.94-.51-2.7-.34-.76-.77-1.35-1.29-1.77-.52-.42-1.19-.75-2.01-.99-.82-.24-1.59-.39-2.31-.45-.72-.06-1.58-.09-2.58-.09H0V0h15.06c4.4,0,7.8.74,10.2,2.22,2.4,1.48,3.6,4.16,3.6,8.04,0,5.08-2.74,8.36-8.22,9.84v.24c3.4.64,6.25,1.8,8.55,3.48,2.3,1.68,3.45,3.94,3.45,6.78,0,2.24-.42,4.13-1.26,5.67-.84,1.54-2.03,2.7-3.57,3.48-1.54.78-3.19,1.33-4.95,1.65-1.76.32-3.8.48-6.12.48H0Z"/>
      <path class="cls-2" d="M35.76,32.71V12.14h4.67v20.57h-4.67ZM35.76,42.05v-4.54h20.95v4.54h-20.95Z"/>
      <path class="cls-2" d="M58.77,42.05l10.54-29.91h6.6l11.48,29.91h-5.36l-9.3-26.18h-.26l-8.7,26.18h-5.01Z"/>
      <path class="cls-2" d="M109.89,32.15h4.71c-.69,3.31-2.25,5.86-4.69,7.65-2.44,1.79-5.42,2.68-8.93,2.68-4.63,0-8.31-1.39-11.03-4.18-2.73-2.79-4.09-6.52-4.09-11.21,0-4.43,1.33-8.1,4.01-11.01,2.67-2.91,6.15-4.37,10.43-4.37,3.77,0,6.96.9,9.58,2.7,2.61,1.8,4.21,4.46,4.78,7.97h-4.63c-.63-2.2-1.76-3.87-3.41-5.01-1.64-1.14-3.62-1.71-5.93-1.71-3.06,0-5.55,1.06-7.48,3.17-1.93,2.11-2.89,4.73-2.89,7.84s.96,5.95,2.89,8.33c1.93,2.39,4.45,3.58,7.56,3.58,2.17,0,4.08-.56,5.72-1.67,1.64-1.11,2.78-2.7,3.41-4.76Z"/>
      <path class="cls-2" d="M116.04,42.05V12.14h4.63v29.91h-4.63ZM136.57,42.05l-11.36-14.1.04-3.81,10.67-12h5.87l-12.98,13.2,13.8,16.71h-6.04Z"/>
      <path class="cls-1" d="M146.14,41.88v-5.28h14.76c1.48,0,2.6-.02,3.36-.06,1.56-.16,2.74-.36,3.54-.6,2.72-1.04,4.08-2.96,4.08-5.76s-1.38-4.68-4.14-5.88c-1.72-.64-4.04-.96-6.96-.96h-14.64v-5.76h13.86c1.16,0,2.17-.06,3.03-.18.86-.12,1.79-.38,2.79-.78,1-.4,1.78-1.05,2.34-1.95.56-.9.84-2.05.84-3.45,0-1.04-.17-1.94-.51-2.7-.34-.76-.77-1.35-1.29-1.77-.52-.42-1.19-.75-2.01-.99-.82-.24-1.59-.39-2.31-.45-.72-.06-1.58-.09-2.58-.09h-14.16V0h15.06c4.4,0,7.8.74,10.2,2.22,2.4,1.48,3.6,4.16,3.6,8.04,0,5.08-2.74,8.36-8.22,9.84v.24c3.4.64,6.25,1.8,8.55,3.48,2.3,1.68,3.45,3.94,3.45,6.78,0,2.24-.42,4.13-1.26,5.67-.84,1.54-2.03,2.7-3.57,3.48-1.54.78-3.19,1.33-4.95,1.65-1.76.32-3.8.48-6.12.48h-16.74Z"/>
      <path class="cls-2" d="M180.98,27.68h4.7c.14,3.19,1.16,5.73,3.04,7.62,1.88,1.88,4.42,2.83,7.62,2.83s5.98-1,7.94-3c1.96-2,2.93-4.71,2.93-8.14s-.91-5.95-2.74-7.92c-1.83-1.97-4.32-3.03-7.49-3.17v-4.4c4.46.14,8.05,1.61,10.77,4.4,2.72,2.79,4.08,6.49,4.08,11.09,0,4.83-1.39,8.62-4.16,11.37-2.78,2.75-6.55,4.12-11.33,4.12-4.49,0-8.13-1.34-10.94-4.03s-4.28-6.28-4.42-10.77Z"/>
      <path class="cls-2" d="M223.69,42.05h-4.62l-.04-12.13-9.97-18h5.27l9.36,17.09v13.03ZM226.36,24.48l-2.42-4.01,4.88-8.54h5.14l-7.6,12.56Z"/>
      <path class="cls-2" d="M233.17,33.03h4.79c.14,1.96.91,3.42,2.31,4.4,1.4.98,3.09,1.47,5.07,1.47.69,0,1.4-.07,2.14-.22s1.47-.39,2.22-.73c.75-.34,1.37-.86,1.86-1.53.49-.68.73-1.47.73-2.4,0-1.93-1.09-3.42-3.28-4.49-.49-.2-1.53-.57-3.11-1.12-.23-.06-.58-.14-1.04-.26-.46-.11-.88-.23-1.27-.34-.39-.11-.76-.23-1.1-.35-1.29-.34-2.39-.7-3.28-1.06-.89-.36-1.78-.83-2.65-1.4-.88-.58-1.55-1.29-2.03-2.14-.47-.85-.76-1.83-.84-2.96l4.45.13c.11.66.39,1.25.82,1.77.43.52,1.01.96,1.75,1.32s1.34.63,1.83.82c.49.19,1.15.4,1.98.63,1.99.55,3.14.88,3.45.99,1.35.4,2.5.81,3.45,1.21.95.4,1.88.93,2.78,1.58.91.65,1.59,1.45,2.05,2.4.46.95.69,2.04.69,3.28,0,1.87-.59,3.47-1.77,4.79-1.18,1.32-2.61,2.27-4.29,2.83-1.68.56-3.49.84-5.42.84-3.6,0-6.51-.76-8.74-2.27-2.23-1.51-3.42-3.91-3.56-7.19ZM256.94,20.9h-4.7c-.14-1.78-.86-3.18-2.14-4.19-1.28-1.01-2.81-1.57-4.6-1.68l-.04-3.54c3.31.09,6.01.9,8.09,2.44,2.09,1.54,3.22,3.86,3.39,6.97Z"/>
    </g>
  </g>
</svg>